<?xml version="1.0" encoding="UTF-8"?>
<svg id="Layer_1" data-name="Layer 1" xmlns="http://www.w3.org/2000/svg" viewBox="0 0 274 373">
  <defs>
    <style>
      .cls-1 {
        fill: #fff;
      }
    </style>
  </defs>
  <path class="cls-1" d="m265.15,13h-31.15v-6.52c0-3.58-2.9-6.48-6.48-6.48H51.48c-3.58,0-6.48,2.9-6.48,6.48v6.52H8.85C3.96,13,0,16.96,0,21.85v45.15h274V21.85c0-4.89-3.96-8.85-8.85-8.85Z"/>
  <path class="cls-1" d="m0,75v288c0,5.52,4.48,10,10,10h254c5.52,0,10-4.48,10-10V75H0Zm80,262c0,5.52-4.48,10-10,10h-26c-5.52,0-10-4.48-10-10V112c0-5.52,4.48-10,10-10h26c5.52,0,10,4.48,10,10v225Zm83,0c0,5.52-4.48,10-10,10h-26c-5.52,0-10-4.48-10-10V112c0-5.52,4.48-10,10-10h26c5.52,0,10,4.48,10,10v225Zm84,0c0,5.52-4.48,10-10,10h-26c-5.52,0-10-4.48-10-10V112c0-5.52,4.48-10,10-10h26c5.52,0,10,4.48,10,10v225Z"/>
</svg>